<?xml version="1.0" encoding="UTF-8" standalone="no"?>
<!-- Created with Pixodesk SVG (https://pixodesk.com) -->
<svg xmlns="http://www.w3.org/2000/svg" viewBox="0 0 34 23" text-rendering="geometricPrecision" shape-rendering="geometricPrecision" fill="none">
  <defs>
    <linearGradient id="374" x1="1.92667" y1="4.65138e-7" x2="19.7024" y2="29.0178" gradientUnits="userSpaceOnUse">
      <stop offset="25.933600000000002%" stop-color="rgb(143,135,241)"/>
      <stop offset="100%" stop-color="rgb(116,101,248)"/>
    </linearGradient>
  </defs>
  <path fill="url(#374)" fill-rule="evenodd" d="M9.6309,0.1443L11.1066,1.0379C11.3675,1.1959,11.4272,1.5486,11.2349,1.7854C9.08,4.4389,7.1222,7.3163,7.122,10.8825C10.0635,10.8825,13.0949,13.3058,13.0949,16.4084C13.0949,20.7423,9.6105,23.4414,6.1263,22.939C2.6421,22.4367,0.5808,19.9249,0.1536,16.9107C-0.8261,9.9985,2.9864,3.7739,8.5994,0.1517C8.9122,-0.0501,9.3125,-0.0485,9.6309,0.1443zM30.5361,0.1443L32.0117,1.0379C32.2727,1.1959,32.3323,1.5486,32.14,1.7854C29.9852,4.4389,28.0273,7.3163,28.0271,10.8825C30.9687,10.8825,34,13.3058,34,16.4084C34,20.7423,30.5157,23.4414,27.0315,22.939C23.5473,22.4367,21.4859,19.9249,21.0587,16.9107C20.079,9.9985,23.8915,3.7739,29.5046,0.1517C29.8174,-0.0501,30.2177,-0.0485,30.5361,0.1443z"/>
</svg>