<?xml version="1.0" encoding="UTF-8" standalone="no"?>
<!-- Created with Pixodesk SVG (https://pixodesk.com) -->
<svg xmlns="http://www.w3.org/2000/svg" viewBox="0 0 122.88 77.39" text-rendering="geometricPrecision" shape-rendering="geometricPrecision" fill="#8f87f1">
  <path class="cls-1" fill-rule="evenodd" d="M2.52,71.63L15.11,71.63C14.1554,71.3775,13.4878,70.5174,13.48,69.53L13.48,18C13.4855,16.7999,14.4599,15.83,15.66,15.83L29.46,15.83L28.57,19.41L17.37,19.41L17.37,68.91L105.23,68.91L105.23,19.4L94.23,19.4L93.23,15.82L106.69,15.82C107.8767,15.8419,108.8257,16.8131,108.82,18L108.82,69.52C108.8192,70.5098,108.1487,71.3737,107.19,71.62L120.36,71.62C123.72,71.62,123.72,77.39,120.36,77.39L2.52,77.39C-0.84,77.39,-0.84,71.63,2.52,71.63zM57.71,0L66.29,0C66.9251,0,67.44,0.5149,67.44,1.15L67.44,4L81,4C81.2282,3.3403,81.6045,2.7417,82.1,2.25L82.1,2.25C82.9709,1.3743,84.155,0.8819,85.39,0.8819C86.625,0.8819,87.8091,1.3743,88.68,2.25L88.68,2.25C89.5557,3.1209,90.0481,4.305,90.0481,5.54C90.0481,6.775,89.5557,7.9591,88.68,8.83L88.68,8.83C87.8091,9.7057,86.625,10.1981,85.39,10.1981C84.155,10.1981,82.9709,9.7057,82.1,8.83L82.1,8.83C81.5952,8.3145,81.2184,7.6877,81,7L74,7C76.2609,8.3066,78.3052,9.9562,80.06,11.89C83.5612,15.7576,85.8734,20.5522,86.72,25.7L88.6,25.7C88.9703,25.6919,89.328,25.834,89.5918,26.094C89.8555,26.354,90.0028,26.7097,90,27.08L90,33.37C90.0027,33.7351,89.8595,34.0861,89.6023,34.3452C89.3451,34.6043,88.9951,34.75,88.63,34.75L82.38,34.75C81.6178,34.75,81,34.1322,81,33.37L81,27.08C81,26.3178,81.6178,25.7,82.38,25.7L83.82,25.7C82.9956,21.2816,80.9599,17.179,77.94,13.85C75.1249,10.7406,71.4831,8.4966,67.44,7.38L67.44,9.83C67.4454,10.1384,67.3266,10.4361,67.1103,10.6561C66.8941,10.8761,66.5985,11,66.29,11L57.71,11C57.4042,11.0027,57.1101,10.8824,56.8939,10.6661C56.6776,10.4499,56.5573,10.1558,56.56,9.85L56.56,7.38C52.4106,8.5311,48.6902,10.8746,45.86,14.12C42.9801,17.4087,41.0297,21.4061,40.21,25.7L41.62,25.7C42.3822,25.7,43,26.3178,43,27.08L43,33.37C43,34.1322,42.3822,34.75,41.62,34.75L35.4,34.75C35.0305,34.7554,34.6744,34.6123,34.4112,34.3529C34.1481,34.0936,34,33.7395,34,33.37L34,27.08C34,26.7105,34.1481,26.3564,34.4112,26.0971C34.6744,25.8377,35.0305,25.6946,35.4,25.7L37.31,25.7C38.1637,20.7029,40.3859,16.0402,43.73,12.23C45.5209,10.1565,47.6389,8.3899,50,7L41.91,7C41.6817,7.6567,41.3053,8.2521,40.81,8.74L40.81,8.74C39.9401,9.6173,38.7555,10.1106,37.52,10.11C36.2825,10.1056,35.0968,9.6133,34.22,8.74L34.22,8.74C33.3443,7.8691,32.8519,6.685,32.8519,5.45C32.8519,4.215,33.3443,3.0309,34.22,2.16L34.22,2.16C35.0909,1.2843,36.275,0.7919,37.51,0.7919C38.745,0.7919,39.9291,1.2843,40.8,2.16L40.8,2.16C41.311,2.6764,41.6915,3.3072,41.91,4L56.56,4L56.56,1.15C56.5573,0.8442,56.6776,0.5501,56.8939,0.3339C57.1101,0.1176,57.4042,-0.0027,57.71,0zM74.66,40.74L70.21,52.12L53.8,51.91L49.26,40.74C53.16,33.74,57.13,25.25,59.17,17.74L61.33,17.98L61.25,38.1C60.2679,38.4564,59.6919,39.4751,59.8927,40.5004C60.0936,41.5256,61.0114,42.2517,62.0553,42.2112C63.0993,42.1708,63.9581,41.3758,64.079,40.3381C64.1998,39.3004,63.5467,38.3293,62.54,38.05L62.6,18.14L65.08,18C66.89,25.51,70.82,34,74.66,40.71L74.66,40.74zM69.82,57L53.88,57L53.88,53.82L69.82,53.82L69.82,57zM57.87,72.58L65,72.58C66.61,72.58,66.61,75.71,65,75.71L57.87,75.71C56.26,75.71,56.25,72.58,57.87,72.58z"/>
</svg>