<?xml version="1.0" encoding="UTF-8" standalone="no"?>
<!-- Created with Pixodesk SVG (https://pixodesk.com) -->
<svg xmlns="http://www.w3.org/2000/svg" viewBox="0 0 42 42" text-rendering="geometricPrecision" shape-rendering="geometricPrecision" fill="none">
  <defs>
    <linearGradient id="13594" x1="3.26667" y1="1" x2="37.8" y2="39.1334" gradientUnits="userSpaceOnUse">
      <stop offset="25.933600000000002%" stop-color="rgb(116,101,248)"/>
      <stop offset="100%" stop-color="rgb(116,101,248)"/>
    </linearGradient>
    <linearGradient id="13616" x1="3.26667" y1="1" x2="37.8" y2="39.1334" gradientUnits="userSpaceOnUse">
      <stop offset="25.933600000000002%" stop-color="rgb(143,135,241)"/>
      <stop offset="100%" stop-color="rgb(116,101,248)"/>
    </linearGradient>
    <linearGradient id="13537" x1="29.602" y1="29.21" x2="36.1781" y2="36.4484" gradientUnits="userSpaceOnUse">
      <stop offset="25.933600000000002%" stop-color="rgb(143,135,241)"/>
      <stop offset="100%" stop-color="rgb(116,101,248)"/>
    </linearGradient>
    <linearGradient id="13559" x1="29.602" y1="29.21" x2="36.1781" y2="36.4484" gradientUnits="userSpaceOnUse">
      <stop offset="25.933600000000002%" stop-color="rgb(143,135,241)"/>
      <stop offset="100%" stop-color="rgb(116,101,248)"/>
    </linearGradient>
    <linearGradient id="13480" x1="3.26667" y1="1" x2="37.8" y2="39.1334" gradientUnits="userSpaceOnUse">
      <stop offset="25.933600000000002%" stop-color="rgb(143,135,241)"/>
      <stop offset="100%" stop-color="rgb(116,101,248)"/>
    </linearGradient>
  </defs>
  <path fill="url(#13480)" fill-rule="evenodd" opacity="0.15" d="M40.6377,19.814C40.4183,19.7228,40.1658,19.7732,39.9978,19.9416L38.2394,21.7057L38.2394,9.7116C38.2394,9.3863,37.9766,9.1226,37.6523,9.1226L33.1413,9.1226L34.7788,7.4798L34.7795,7.4791L36.3573,5.8962C36.6954,5.557,36.8816,5.1059,36.8816,4.6262C36.8816,4.1466,36.6954,3.6956,36.3573,3.3563L34.5328,1.5259C34.1948,1.1868,33.7451,1,33.2669,1C32.7888,1,32.3392,1.1868,32.0011,1.5259L30.4225,3.1096L28.515,5.0232L24.4288,9.1225L6.2047,9.1225L6.2047,3.2956C6.2047,2.9703,5.9418,2.7066,5.6176,2.7066C3.0715,2.7068,1,4.7848,1,7.3392L1,32.3559C1,32.3994,1.005,32.4417,1.0139,32.4825C1.095,33.5664,1.5624,34.5734,2.3436,35.3379C3.1786,36.1549,4.2809,36.6048,5.4474,36.6048L23.3879,36.6048L20.0091,39.9946C19.8412,40.163,19.791,40.4162,19.8818,40.6364C19.9727,40.8565,20.1868,41,20.4243,41L40.413,41C40.7372,41,41.0001,40.7364,41.0001,40.411L41.0001,20.3582C41.0001,20.12,40.857,19.9052,40.6377,19.814zM32.8315,2.359C33.0715,2.118,33.4626,2.118,33.7026,2.359L35.5272,4.1894C35.7673,4.4303,35.7673,4.8224,35.5272,5.0633L34.3638,6.2305L31.668,3.5261L32.8315,2.359zM30.8377,4.3591L33.5334,7.0634L32.4562,8.1442L29.7606,5.4399L30.8377,4.3591zM18.3967,21.76L16.715,22.3556L15.5945,21.2315L16.1882,19.5444L18.3967,21.76zM35.8293,30.1707L30.1707,35.8293C30.1077,35.8923,30.1523,36,30.2414,36L36,36L36,30.2414C36,30.1523,35.8923,30.1077,35.8293,30.1707zM16,18.5L19.5,22L32.5,9L29,5.5L16,18.5z"/>
  <path fill="url(#13537)" stroke="url(#13559)" stroke-width="0.25" d="M36.3998,29.2549C36.1804,29.1637,35.9279,29.2141,35.76,29.3825L29.3439,35.8193C29.176,35.9878,29.1257,36.2411,29.2167,36.4612C29.3075,36.6814,29.5217,36.8248,29.7591,36.8248L36.1752,36.8248C36.4995,36.8248,36.7623,36.5611,36.7623,36.2358L36.7623,29.799C36.7622,29.5609,36.6192,29.3461,36.3998,29.2549zM31.1763,35.6469L35.5879,31.221L35.5879,35.6469L31.1763,35.6469z"/>
  <path fill="url(#13594)" stroke="url(#13616)" stroke-width="0.25" d="M40.6377,19.814C40.4183,19.7228,40.1658,19.7732,39.9978,19.9416L38.2394,21.7057L38.2394,9.7116C38.2394,9.3863,37.9766,9.1226,37.6523,9.1226L33.1413,9.1226L34.7788,7.4798C34.7791,7.4796,34.7793,7.4793,34.7795,7.4791L36.3573,5.8962C36.6954,5.557,36.8816,5.1059,36.8816,4.6262C36.8816,4.1466,36.6954,3.6956,36.3573,3.3563L34.5328,1.5259C34.1948,1.1868,33.7451,1,33.2669,1C32.7888,1,32.3392,1.1868,32.0011,1.5259L30.4225,3.1096L28.515,5.0232L24.4288,9.1225L6.2047,9.1225L6.2047,3.2956C6.2047,2.9703,5.9418,2.7066,5.6176,2.7066C3.0715,2.7068,1,4.7848,1,7.3392L1,32.3559C1,32.3994,1.005,32.4417,1.0139,32.4825C1.095,33.5664,1.5624,34.5734,2.3436,35.3379C3.1786,36.1549,4.2809,36.6048,5.4474,36.6048L23.3879,36.6048L20.0091,39.9946C19.8412,40.163,19.791,40.4162,19.8818,40.6364C19.9727,40.8565,20.1868,41,20.4243,41L40.413,41C40.7372,41,41.0001,40.7364,41.0001,40.411L41.0001,20.3582C41.0001,20.12,40.857,19.9052,40.6377,19.814zM32.8315,2.359C33.0715,2.118,33.4626,2.118,33.7026,2.359L35.5272,4.1894C35.7673,4.4303,35.7673,4.8224,35.5272,5.0633L34.3638,6.2305L31.668,3.5261L32.8315,2.359zM30.8377,4.3591L33.5334,7.0634L32.4562,8.1442L29.7606,5.4399L30.8377,4.3591zM39.826,26.9764L38.7428,26.9764C38.4185,26.9764,38.1557,27.2401,38.1557,27.5654C38.1557,27.8908,38.4185,28.1544,38.7428,28.1544L39.826,28.1544L39.826,29.9293L38.7428,29.9293C38.4185,29.9293,38.1557,30.1931,38.1557,30.5184C38.1557,30.8437,38.4185,31.1074,38.7428,31.1074L39.826,31.1074L39.826,32.8822L38.7428,32.8822C38.4185,32.8822,38.1557,33.1458,38.1557,33.4712C38.1557,33.7965,38.4185,34.0602,38.7428,34.0602L39.826,34.0602L39.826,35.8351L38.7428,35.8351C38.4185,35.8351,38.1557,36.0988,38.1557,36.4241C38.1557,36.7495,38.4185,37.0131,38.7428,37.0131L39.826,37.0131L39.826,39.8222L21.8416,39.8222L27.7719,33.873C28.0012,33.6428,28.0012,33.27,27.7719,33.04C27.7456,33.0135,27.7173,32.9906,27.6877,32.9703C27.4591,32.8133,27.1446,32.8363,26.9415,33.04L24.5622,35.427L5.4475,35.427C3.6669,35.427,2.2334,34.0324,2.177,32.2493C2.1804,32.1373,2.1891,32.0263,2.203,31.9166C2.2031,31.916,2.2031,31.9154,2.2032,31.9147C2.2098,31.8626,2.2177,31.8107,2.2266,31.7592C2.2277,31.7533,2.2287,31.7473,2.2298,31.7415C2.238,31.6955,2.2472,31.6497,2.2573,31.6041C2.2601,31.5914,2.263,31.5787,2.266,31.5661C2.2749,31.5275,2.2845,31.4892,2.2948,31.451C2.3005,31.4303,2.3063,31.4099,2.3123,31.3893C2.3209,31.3593,2.3298,31.3295,2.3393,31.2999C2.3487,31.2704,2.3588,31.2411,2.3691,31.2119C2.3762,31.1915,2.3832,31.171,2.3909,31.1507C2.4052,31.1121,2.4203,31.074,2.4359,31.0361C2.4404,31.0252,2.4448,31.0142,2.4494,31.0033C2.4695,30.9562,2.4903,30.9098,2.5124,30.8638C2.5133,30.8619,2.5141,30.8599,2.5151,30.858C2.9743,29.9046,3.8575,29.1938,4.9174,28.9732C4.9204,28.9726,4.9234,28.9719,4.9263,28.9712C4.9749,28.9613,5.024,28.9528,5.0734,28.9449C5.0816,28.9436,5.0898,28.9418,5.0981,28.9406C5.1427,28.9338,5.1878,28.9285,5.2329,28.9234C5.2456,28.922,5.2581,28.92,5.2709,28.9188C5.3144,28.9144,5.3583,28.9115,5.4022,28.9087C5.4161,28.9078,5.43,28.9064,5.4439,28.9057C5.5014,28.9028,5.5594,28.9013,5.6176,28.9013C5.9418,28.9013,6.2047,28.6377,6.2047,28.3123L6.2047,24.0416C6.2047,23.7163,5.9418,23.4527,5.6176,23.4527C5.2934,23.4527,5.0305,23.7163,5.0305,24.0416L5.0305,27.7604C4.0391,27.8862,3.1188,28.3298,2.3932,29.0407C2.3169,29.1154,2.2445,29.1932,2.1741,29.2722L2.1741,7.3392C2.1741,5.6353,3.4105,4.2153,5.0304,3.9349L5.0304,21.6858C5.0304,22.011,5.2933,22.2748,5.6175,22.2748C5.9417,22.2748,6.2046,22.011,6.2046,21.6858L6.2046,10.3006L23.2547,10.3006L20.009,13.5567C19.7797,13.7868,19.7797,14.1597,20.009,14.3897C20.2383,14.6196,20.61,14.6196,20.8393,14.3897L25.0872,10.1281C25.0873,10.128,25.0874,10.1278,25.0875,10.1277L28.9301,6.2728L31.6257,8.9771L31.3094,9.2944C31.3092,9.2947,31.3089,9.2949,31.3087,9.2951L19.4705,21.1715L16.7749,18.4672L19.1083,16.1263C19.3376,15.8961,19.3376,15.5233,19.1083,15.2933C18.879,15.0634,18.5073,15.0634,18.2781,15.2933L15.5294,18.0507C15.5147,18.0655,15.501,18.081,15.4881,18.097C15.4838,18.1024,15.48,18.1081,15.4759,18.1136C15.4676,18.1247,15.4595,18.1358,15.4519,18.1474C15.4476,18.1542,15.4437,18.1611,15.4396,18.168C15.4332,18.179,15.4269,18.1902,15.4212,18.2015C15.4175,18.2088,15.4141,18.2164,15.4107,18.224C15.4054,18.2355,15.4006,18.2473,15.3961,18.259C15.3946,18.2632,15.3925,18.2671,15.391,18.2712L14.2472,21.522L13.4674,23.7384C13.4571,23.7678,13.4496,23.7978,13.4441,23.828L11.4916,23.828C11.1674,23.828,10.9045,24.0916,10.9045,24.4169C10.9045,24.7423,11.1674,25.0059,11.4916,25.0059L27.7505,25.0059C28.0748,25.0059,28.3376,24.7423,28.3376,24.4169C28.3376,24.0916,28.0748,23.828,27.7505,23.828L16.0854,23.828L19.6659,22.5599C19.6689,22.5589,19.6717,22.5574,19.6746,22.5563C19.6886,22.5511,19.7022,22.5452,19.7157,22.5391C19.7211,22.5366,19.7265,22.5342,19.7318,22.5316C19.7458,22.5246,19.7596,22.5168,19.7732,22.5085C19.7776,22.5058,19.7821,22.5034,19.7864,22.5007C19.8006,22.4916,19.8143,22.4816,19.8279,22.4711C19.8312,22.4686,19.8347,22.4663,19.838,22.4636C19.8543,22.4504,19.8703,22.4363,19.8855,22.421L31.9671,10.3007L37.0652,10.3007L37.0652,22.8837L28.667,31.3089C28.4377,31.5391,28.4377,31.9119,28.667,32.1419C28.6813,32.1563,28.6962,32.1698,28.7116,32.1823C28.8193,32.2704,28.9508,32.3145,29.0822,32.3145C29.2136,32.3145,29.3451,32.2704,29.4527,32.1823C29.4681,32.1698,29.483,32.1563,29.4973,32.1419L29.4976,32.1417L39.826,21.7799L39.826,26.9764zM18.3967,21.76L16.715,22.3556L15.5945,21.2315L16.1882,19.5444L18.3967,21.76z"/>
</svg>